<?xml version="1.0" encoding="UTF-8"?>
<svg id="Layer_1" data-name="Layer 1" xmlns="http://www.w3.org/2000/svg" version="1.1" viewBox="0 0 577.7 729.4">
  <defs>
    <style>
      .cls-1 {
        stroke-width: 8px;
      }

      .cls-1, .cls-2, .cls-3 {
        fill: none;
        stroke: #000;
        stroke-miterlimit: 10;
      }

      .cls-2 {
        stroke-width: 7px;
      }

      .cls-3 {
        stroke-width: 6px;
      }
    </style>
  </defs>
  <path class="cls-1" d="M354.4,524.5c-20.4,2-42.7,3.3-66.8,3.3s-47.2-1.3-67.9-3.3c-2.2,0-13.8-.1-22.9-9.8-7.4-7.8-8.8-17-9.1-20V212.1c.3-2.7,1.5-12.1,9.1-20,8.5-8.9,19-11.1,21.4-11.1,21.9-2.9,46.9-3.3,74.2-3.3s43.7,1.4,62.7,3.6c2.5.1,14.4.7,23.6,10.8,7.1,7.8,8.7,16.7,9.1,20v282.6c-.3,3-1.7,12.2-9.1,20-9.6,10.1-22.2,9.8-24.3,9.8Z"/>
  <g>
    <line class="cls-1" x1="187.8" y1="233.8" x2="385" y2="233.8"/>
    <path class="cls-3" d="M316,201.2h-53.2c-1.4,0-2.7-1.1-2.7-2.7h0c0-1.4,1.1-2.7,2.7-2.7h53.2c1.4,0,2.7,1.1,2.7,2.7h0c0,1.6-1.3,2.7-2.7,2.7Z"/>
    <line class="cls-1" x1="191" y1="368.2" x2="385" y2="368.2"/>
    <line class="cls-3" x1="239.9" y1="365.6" x2="239.9" y2="404.4"/>
    <line class="cls-3" x1="336.5" y1="362.7" x2="336.5" y2="404.4"/>
    <path class="cls-3" d="M358.3,478.1c3.2,6,1.7,13.6-2.2,19,0,0-35.6,4.5-67.6,3.6"/>
    <path class="cls-3" d="M215.9,478.1c-3.1,6-1.5,15.2,3.8,19,2.7,1.9,35.2,2.4,70.5,3.6"/>
    <line class="cls-2" x1="201.9" y1="233.8" x2="201.9" y2="368.2"/>
    <line class="cls-2" x1="372.7" y1="233.8" x2="372.7" y2="365.6"/>
    <path class="cls-3" d="M291.6,397.3h-7.5c-3.9,0-7-3.3-7-7.2v-4.2c0-4,3.2-7.2,7-7.2h7.5c3.9,0,7,3.3,7,7.2v4.2c0,4-3.2,7.2-7,7.2Z"/>
    <line class="cls-3" x1="187.8" y1="407.3" x2="385" y2="407.3"/>
    <line class="cls-3" x1="187.8" y1="430.4" x2="385" y2="430.4"/>
    <line class="cls-3" x1="187.8" y1="455.2" x2="387.8" y2="455.2"/>
    <line class="cls-3" x1="187.8" y1="478.4" x2="385" y2="478.4"/>
  </g>
  <g>
    <line class="cls-1" x1="215.5" y1="405.1" x2="215.5" y2="475.5"/>
    <polyline class="cls-1" points="243.4 407.3 243.9 482.3 243.9 500.9"/>
    <line class="cls-1" x1="272" y1="407.3" x2="272" y2="479.5"/>
    <line class="cls-1" x1="301.3" y1="408.4" x2="301.3" y2="478.5"/>
    <polyline class="cls-1" points="329.6 407.3 329.6 482.1 329.6 500.9"/>
    <line class="cls-1" x1="359" y1="405.1" x2="359" y2="475.5"/>
  </g>
</svg>