<?xml version="1.0" encoding="UTF-8"?>
<svg id="Layer_1" data-name="Layer 1" xmlns="http://www.w3.org/2000/svg" version="1.1" viewBox="0 0 504 630">
  <defs>
    <style>
      .cls-1 {
        fill: #000;
        fill-rule: evenodd;
        stroke-width: 0px;
      }
    </style>
  </defs>
  <path class="cls-1" d="M264.9,215c24.3,0,45.5,15.5,51.5,37.1,43.2,2,63.4,51.1,32.9,79.7-30.5,28.7-21.7,13.8-35.5,13.8h-18.1v19.3c0,2.2,1.9,4,4.3,4h15.7c4.8-16.2,30.8-13.1,30.8,3.8s-26,20-30.8,3.8h-15.7c-6.9,0-12.4-5.3-12.4-11.5v-19.3h-19.6v40.6c11.4,2.9,15.5,16.4,6.9,24.4h0c-6.2,5.8-16,5.8-22.2,0h0c-8.6-8-4.5-21.5,6.9-24.4v-40.6h-19.3v19.3c0,6.4-5.7,11.5-12.4,11.5h-15.7c-4.8,16.2-30.8,13.1-30.8-3.8s26-20,30.8-3.8h15.7c2.4,0,4.3-1.8,4.3-4v-19.3h-26.2c-37.4,0-56-42.2-29.8-66.9,9.1-8.4,22.2-12.9,35.8-11.1-1.9-28.7,22.4-52.6,53.2-52.6h-.2ZM202.4,367.8c-6.9-6.4-17.4,3.3-10.5,9.8,6.9,6.4,17.4-3.3,10.5-9.8ZM336,367.8c-6.9-6.4-17.4,3.3-10.5,9.8s17.4-3.3,10.5-9.8ZM269.2,395.3c-6.9-6.4-17.4,3.3-10.5,9.8,0,.4,2.6,2,5.2,2s5.2-1.6,5.2-2c2.9-2.7,2.9-7.1,0-9.8ZM293.5,232.3c-32-24.7-80.1,1.3-73,39.8l1.2,6.2c-5.7-1.6-10-3.1-16-3.1-30,0-45.1,34-23.8,53.7,6.2,5.8,14.5,9.1,23.8,9.1h108c37.2,0,56-42.2,29.6-66.6-10-9.3-20.5-11.5-33.6-11.3-2.4-11.5-6.2-20-16.2-27.5h0v-.2Z"/>
</svg>