<?xml version="1.0" encoding="UTF-8"?>
<svg id="Layer_1" data-name="Layer 1" xmlns="http://www.w3.org/2000/svg" version="1.1" viewBox="0 0 504 630">
  <defs>
    <style>
      .cls-1 {
        fill: #000;
        stroke-width: 0px;
      }
    </style>
  </defs>
  <path class="cls-1" d="M153.6,415h196.8c.9,0,1.6-.7,1.6-1.6v-192.5c0-3.3-2.7-6-6.1-6h-11.7c-3.4,0-6.1,2.7-6.1,6v3.4h-142.3v-3.4c0-3.3-2.7-6-6.1-6h-12.4c-3.4,0-6.1,2.7-6.1,6v13.4c0,2.2-1.9,4-4.1,4h-3.5c-.9,0-1.6.7-1.6,1.6v173.5c0,.9.7,1.6,1.6,1.6ZM204,227.5h96.1v46.1c0,3-2.5,5.4-5.6,5.4h-84.8c-3.1,0-5.6-2.4-5.6-5.4v-46.1h0ZM155.2,241.5h1.9c4,0,7.3-3.2,7.3-7.1v-13.4c0-1.5,1.3-2.8,2.9-2.8h12.4c1.6,0,2.9,1.2,2.9,2.8v4.9c0,.9.7,1.6,1.6,1.6h16.6v46.1c0,4.7,3.9,8.6,8.8,8.6h84.8c4.9,0,8.8-3.9,8.8-8.6v-46.1h26.5c.9,0,1.6-.7,1.6-1.6v-4.9c0-1.5,1.3-2.8,2.9-2.8h11.7c1.6,0,2.9,1.2,2.9,2.8v190.9h-193.7v-170.3ZM216.6,272.5h18c.9,0,1.6-.7,1.6-1.6v-35.4c0-.9-.7-1.6-1.6-1.6h-18c-.9,0-1.6.7-1.6,1.6v35.4c0,.9.7,1.6,1.6,1.6ZM218.2,237.2h14.8v32.2h-14.8v-32.2ZM252,292.6c-23.1,0-42,18.3-42,40.8s18.8,40.8,42,40.8,42-18.3,42-40.8-18.8-40.8-42-40.8ZM252,371.1c-21.4,0-38.8-16.9-38.8-37.7s17.4-37.7,38.8-37.7,38.8,16.9,38.8,37.7-17.4,37.7-38.8,37.7ZM252,329.9c-4.5,0-8.1,3.6-8.1,7.9s3.6,7.9,8.1,7.9,8.1-3.6,8.1-7.9-3.6-7.9-8.1-7.9ZM252,342.6c-2.7,0-4.9-2.1-4.9-4.7s2.2-4.7,4.9-4.7,4.9,2.1,4.9,4.7-2.2,4.7-4.9,4.7ZM255.6,313c0-.4-.2-.8-.5-1.1l-8.9-7.9c-.6-.6-1.6-.5-2.2.1l-15.3,16.3c-.3.3-.4.7-.4,1.2s.2.8.5,1.1l8.9,7.9c.3.3.7.4,1.1.4s.8-.2,1.2-.5l15.3-16.3c.3-.3.4-.7.4-1.2ZM238.6,327.1l-6.5-5.8,13.1-13.9,6.5,5.8-13.1,13.9Z"/>
</svg>