<?xml version="1.0" encoding="UTF-8"?>
<svg id="Layer_1" data-name="Layer 1" xmlns="http://www.w3.org/2000/svg" version="1.1" viewBox="0 0 419 1055">
  <defs>
    <style>
      .cls-1 {
        fill: #000;
        stroke-width: 0px;
      }
    </style>
  </defs>
  <path class="cls-1" d="M171.7,412.8c-2.8.8-4.9,1.9-7.1,4.1-2.2,2.2-3.5,4.3-4.2,7.1-.5,1.8-.5,3-.5,88.3s0,86.4.5,88.3c.7,2.9,2,5,4.2,7.1,2.2,2.2,4.3,3.5,7.2,4.1,1.8.5,2.8.5,38.2.5s36.4,0,38.2-.5c2.9-.7,5-2,7.2-4.1,2.2-2.2,3.5-4.3,4.2-7.1.5-1.8.5-3,.5-88.3s0-86.5-.5-88.3c-.7-2.9-2-4.9-4.2-7.1-2.2-2.2-4.3-3.4-7.2-4.1-1.8-.4-2.8-.4-38.3-.4s-36.5,0-38.2.4h0ZM248.1,418.1c2.7,1.1,5,3.4,6.1,6l.6,1.3v173.7l-.6,1.3c-1.1,2.6-3.4,4.9-6.1,6l-1.3.5h-73.6l-1.3-.5c-2.7-1.1-5-3.4-6.1-6l-.6-1.3v-86.3c-.1-77.1,0-86.4.3-87.7.7-2.6,2.5-4.9,4.9-6.4,2.4-1.4.5-1.4,40-1.3h36.3l1.3.6h0Z"/>
  <path class="cls-1" d="M209,423.3c-1.5,1.4,0,3.6,2,2.9.7-.3,1.1-.9,1.1-1.9s-1.1-1.6-1.8-1.6-.9.3-1.2.6Z"/>
  <path class="cls-1" d="M200.4,431.3c-.7.4-.7,1.4,0,1.9.5.4,1.8.4,9.9.4s10.2,0,10.2-1.3,0-1.3-10.2-1.3-9.4,0-9.9.4h0Z"/>
  <path class="cls-1" d="M195.1,431.5c-.2.1-.3.6-.3.9,0,1.3,1.4,1.6,2.1.6.4-.6.4-.6,0-1.2-.5-.6-1.3-.8-1.8-.3h0Z"/>
  <path class="cls-1" d="M168.3,440.8l-.5.4v71.8c0,60,0,71.8.3,72.1s7.5.3,41.7.4h41.4l.5-.5c.4-.5.5-3.5.5-72s0-71.6-.5-72-.8-.4-41.6-.4-41.2,0-41.7.4h0ZM249.5,513.1v70h-39.1c-21.5,0-39.4,0-39.7-.1h-.6v-68.3c0-37.4,0-68.9.2-69.9l.2-1.8h79v70h0Z"/>
  <path class="cls-1" d="M208.2,588.7c-1.7.5-2.7,1-4,2.5-1.3,1.4-1.9,3.1-1.9,5s.7,3.8,2.4,5.5c1.7,1.6,3.2,2.3,5.4,2.3s3.7-.6,5.4-2.3c1.7-1.7,2.4-3.2,2.4-5.5s-.7-3.8-2.4-5.5c-2.1-2.1-4.7-2.8-7.3-2.1h0ZM212.9,590.1c2.6,1.1,4,3.4,4,6.2,0,7.3-9.7,9.4-12.8,2.9-1.2-2.5-.6-5.8,1.4-7.7,1.9-1.9,5.1-2.5,7.5-1.4h0Z"/>
  <path class="cls-1" d="M207.5,596.2v2.6h5.3v-5.2h-5.3v2.6ZM212.3,596.2v2.1h-4.3v-4.3h4.3v2.1h0Z"/>
</svg>