<?xml version="1.0" encoding="UTF-8"?>
<svg id="Layer_1" data-name="Layer 1" xmlns="http://www.w3.org/2000/svg" version="1.1" viewBox="0 0 504 630">
  <defs>
    <style>
      .cls-1 {
        fill: #000;
        stroke-width: 0px;
      }
    </style>
  </defs>
  <path class="cls-1" d="M322.1,231.2h-139.8c-1.3,0-2.4,1.1-2.4,2.5v98.9c0,1.4,1.1,2.5,2.4,2.5h140c1.3,0,2.4-1.1,2.4-2.5v-98.9c0-1.4-1.1-2.5-2.4-2.5h-.2ZM319.7,330.1h-134.9v-93.9h135.2v93.9h-.2ZM345.8,342.8h-8.6v-112.1c0-6.8-5.5-12.5-12.1-12.5h-145.9c-6.6,0-12.1,5.7-12.1,12.5v112.3h-8.6c-3.5,0-6.6,3-6.6,6.8v5.9c0,7,5.5,12.5,12.1,12.5h175.8c6.8,0,12.1-5.7,12.1-12.5v-5.9c0-3.6-2.9-6.8-6.4-6.8l.2-.2ZM172.2,230.7c0-4.1,3.3-7.5,7.3-7.5h145.7c4,0,7.3,3.4,7.3,7.5v112.3h-160.2v-112.3ZM347.4,355.5c0,4.1-3.3,7.5-7.3,7.5h-175.8c-4,0-7.3-3.4-7.3-7.5v-5.9c0-.9.7-1.6,1.5-1.6h187c.9,0,1.5.7,1.5,1.6v5.9h.2ZM227.6,293.6c-.7-1.1-.2-2.7.9-3.4l45.1-26.8c1.1-.7,2.6-.2,3.3.9s.2,2.7-.9,3.4l-45.1,26.8c-.4,0-.9.5-1.1.5-.9,0-1.8-.5-2.2-1.4ZM269.4,289.5c.7,1.1.2,2.7-.9,3.4l-37.6,22.7c-.4,0-.9.5-1.3.5-.9,0-1.8-.5-2.2-1.1-.7-1.1-.2-2.7.9-3.4l37.6-22.7c1.1-.7,2.6-.2,3.3.9l.2-.2ZM281,355.5c0,1.4-1.1,2.5-2.4,2.5h-52.7c-1.3,0-2.4-1.1-2.4-2.5s1.1-2.5,2.4-2.5h52.7c1.3,0,2.4,1.1,2.4,2.5Z"/>
</svg>