<?xml version="1.0" encoding="UTF-8"?>
<svg id="Layer_1" data-name="Layer 1" xmlns="http://www.w3.org/2000/svg" version="1.1" viewBox="0 0 100 125">
  <defs>
    <style>
      .cls-1 {
        fill: #08fffd;
        stroke-width: 0px;
      }
    </style>
  </defs>
  <path class="cls-1" d="M56.5,90.1c2.9-.2,5.2-2.6,5.2-5.5v-9.5c0-4.2,1.8-8.2,4.9-11.1,5.5-5.1,8.3-12.3,7.6-19.8-1-11.6-10.6-21-22.2-21.8h-3.4c-11.6.8-21.2,10.2-22.2,21.8-.7,7.5,2.1,14.7,7.6,19.8,3.1,2.9,4.9,7,4.9,11.1v9.5c0,2.9,2.3,5.3,5.2,5.5.7,2.5,3.2,4.9,6.3,4.9s5.6-2.4,6.3-4.9h-.2ZM41.8,81.1h16.9v1.5h-16.9s0-1.5,0-1.5ZM35.9,61.7c-4.8-4.5-7.2-10.8-6.6-17.4.9-10.2,9.3-18.4,19.5-19.1h3c10.2.7,18.6,8.9,19.5,19.1.6,6.6-1.8,12.9-6.6,17.4-3.4,3.1-5.4,7.4-5.8,11.8h-3.9v-19.1h2c2.7,0,5-2.2,5-5s-2.2-5-5-5-5,2.2-5,5v2h-3.3v-2c0-2.7-2.2-5-5-5s-5,2.2-5,5,2.2,5,5,5h2v19.1h-3.9c-.4-4.5-2.4-8.7-5.8-11.8h-.1ZM45.6,51.4h-2c-1.1,0-2-.9-2-2s.9-2,2-2,2,.9,2,2v2ZM48.6,54.4h3.3v19.1h-3.3v-19.1ZM54.9,51.4v-2c0-1.1.9-2,2-2s2,.9,2,2-.9,2-2,2h-2ZM58.7,76.5v1.5h-16.9v-1.5s16.9,0,16.9,0ZM42,85.6h16.5c-.4.9-1.3,1.5-2.3,1.5h-11.9c-1,0-1.9-.6-2.3-1.5ZM50.2,92c-1.3,0-2.4-.9-3-1.9h6.1c-.6,1-1.7,1.9-3,1.9h0Z"/>
  <path class="cls-1" d="M48.6,6.6v7c0,.9.7,1.6,1.6,1.6s1.6-.7,1.6-1.6v-7c0-.9-.7-1.6-1.6-1.6s-1.6.7-1.6,1.6Z"/>
  <path class="cls-1" d="M74.6,13.1c-.7-.5-1.7-.4-2.2.4l-4.1,5.6c-.5.7-.4,1.7.4,2.2s1.7.4,2.2-.4l4.1-5.6c.5-.7.4-1.7-.4-2.2Z"/>
  <path class="cls-1" d="M89.6,33.9c-.3-.8-1.2-1.3-2-1l-6.6,2.2c-.8.3-1.3,1.2-1,2s1.2,1.3,2,1l6.6-2.2c.8-.3,1.3-1.2,1-2Z"/>
  <path class="cls-1" d="M87.5,60.7c.8.3,1.7-.2,2-1s-.2-1.7-1-2l-6.6-2.2c-.8-.3-1.7.2-2,1s.2,1.7,1,2l6.6,2.2Z"/>
  <path class="cls-1" d="M72,80c.5.7,1.5.9,2.2.4s.9-1.5.4-2.2l-4.1-5.6c-.5-.7-1.5-.9-2.2-.4s-.9,1.5-.4,2.2l4.1,5.6Z"/>
  <path class="cls-1" d="M25.4,80.1c.7.5,1.7.4,2.2-.4l4.1-5.6c.5-.7.4-1.7-.4-2.2s-1.7-.4-2.2.4l-4.1,5.6c-.5.7-.4,1.7.4,2.2Z"/>
  <path class="cls-1" d="M12.4,60.2l6.6-2.2c.8-.3,1.3-1.2,1-2h0c-.3-.8-1.2-1.3-2-1l-6.6,2.2c-.8.3-1.3,1.2-1,2s1.2,1.3,2,1Z"/>
  <path class="cls-1" d="M11.6,35.5l6.6,2.2c.8.3,1.7-.2,2-1s-.2-1.7-1-2l-6.6-2.2c-.8-.3-1.7.2-2,1s.2,1.7,1,2Z"/>
  <path class="cls-1" d="M29.5,20.7c.5.7,1.5.9,2.2.4s.9-1.5.4-2.2l-4.1-5.6c-.5-.7-1.5-.9-2.2-.4s-.9,1.5-.4,2.2c0,0,4.1,5.6,4.1,5.6Z"/>
</svg>