<?xml version="1.0" encoding="UTF-8"?>
<svg id="Layer_1" data-name="Layer 1" xmlns="http://www.w3.org/2000/svg" version="1.1" viewBox="0 0 504 630">
  <defs>
    <style>
      .cls-1 {
        fill: #000;
        fill-rule: evenodd;
        stroke-width: 0px;
      }
    </style>
  </defs>
  <path class="cls-1" d="M217.3,261.9h9.4v-12.8h-5.5v.4c-.6,1.7-1.9,3.4-3.8,4.3h0c-1.9.9-3.8.9-5.5.4-1.7-.6-3.4-1.9-4.3-3.8h0c-.9-1.9-.9-3.8-.2-5.7.6-1.7,1.9-3.4,3.8-4.3,1.9-.9,3.8-.9,5.7-.2,1.7.6,3.4,1.9,4.3,3.8h0c0,.4.4.9.4,1.3h7.7c1.1,0,2.1.9,2.1,2.1v14.9h18.7v-27.9c-.4,0-.9-.2-1.3-.4-1.9-.9-3.2-2.3-3.8-4.3-.6-1.7-.6-3.8.2-5.7.9-1.9,2.3-3.2,4.3-3.8,1.7-.6,3.8-.6,5.7.2,1.9.9,3.2,2.3,3.8,4.3.6,1.7.6,3.8-.2,5.7-.9,1.9-2.3,3.2-4.3,3.8h-.4v27.9h18.7v-14.9c0-1.1.9-2.1,2.1-2.1h7.7c0-.4.2-.9.4-1.3h0c.9-1.9,2.3-3.2,4.3-3.8,1.7-.6,3.8-.6,5.7.2h0c1.9.9,3.2,2.3,3.8,4.3.6,1.7.6,3.8-.2,5.7h0c-.9,1.9-2.3,3.2-4.3,3.8-1.7.6-3.8.6-5.7-.2h0c-1.9-.9-3.2-2.3-3.8-4.3v-.4h-5.5v12.8h9.4c6.4,0,12.1,2.6,16.4,6.8s6.8,10,6.8,16.4v9.4h12.8v-5.5h-.4c-1.7-.6-3.4-1.9-4.3-3.8h0c-.9-1.9-.9-3.8-.2-5.7.6-1.7,1.9-3.4,3.8-4.3h0c1.9-.9,3.8-.9,5.5-.4,1.7.6,3.4,1.9,4.3,3.8h0c.9,1.9.9,3.8.2,5.7-.6,1.7-1.9,3.4-3.8,4.3h0c-.4,0-.9.4-1.3.4v7.7c0,1.1-.9,2.1-2.1,2.1h-14.9v18.7h27.9c0-.4.2-.9.4-1.3.9-1.9,2.3-3.2,4.3-3.8,1.7-.6,3.8-.6,5.7.2,1.9.9,3.2,2.3,3.8,4.3.6,1.7.6,3.8-.2,5.7s-2.3,3.2-4.3,3.8c-1.7.6-3.8.6-5.7-.2-1.9-.9-3.2-2.3-3.8-4.3v-.4h-27.9v18.7h14.9c1.1,0,2.1.9,2.1,2.1v7.7c.4,0,.9.2,1.3.4,1.9.9,3.2,2.3,3.8,4.3.6,1.7.6,3.8-.2,5.7h0c-.9,1.9-2.3,3.2-4.3,3.8-1.7.6-3.8.6-5.7-.2h0c-1.9-.9-3.2-2.3-3.8-4.3-.6-1.7-.6-3.8.2-5.7.9-1.9,2.3-3.2,4.3-3.8h.4v-5.5h-12.8v9.4c0,6.4-2.6,12.1-6.8,16.4s-10,6.8-16.4,6.8h-9.4v12.8h5.5v-.4c.6-1.7,1.9-3.4,3.8-4.3h0c1.9-.9,3.8-.9,5.5-.4,1.7.6,3.4,1.9,4.3,3.8h0c.9,1.9.9,3.8.2,5.7-.6,1.7-1.9,3.4-3.8,4.3h0c-1.9.9-3.8.9-5.7.4-1.7-.6-3.4-1.9-4.3-3.8h0c0-.4-.4-.9-.4-1.3h-7.7c-1.1,0-2.1-.9-2.1-2.1v-14.9h-18.7v27.9c.4,0,.9.2,1.3.4,1.9.9,3.2,2.3,3.8,4.3.6,1.7.6,3.8-.2,5.7-.9,1.9-2.3,3.2-4.3,3.8-1.7.6-3.8.6-5.7-.2s-3.2-2.3-3.8-4.3c-.6-1.7-.6-3.8.2-5.7.9-1.9,2.3-3.2,4.3-3.8h.4v-27.9h-18.7v14.9c0,1.1-.9,2.1-2.1,2.1h-7.7c0,.4-.2.9-.4,1.3-.9,1.9-2.3,3.2-4.3,3.8-1.7.6-3.8.6-5.7-.2h0c-1.9-.9-3.2-2.3-3.8-4.3-.6-1.7-.6-3.8.2-5.7h0c.9-1.9,2.3-3.2,4.3-3.8,1.7-.6,3.8-.6,5.7.2s3.2,2.3,3.8,4.3v.4h5.5v-12.8h-9.4c-6.4,0-12.1-2.6-16.4-6.8s-6.8-10-6.8-16.4v-9.4h-12.8v5.5h.4c1.7.6,3.4,1.9,4.3,3.8s.9,3.8.2,5.7c-.6,1.7-1.9,3.4-3.8,4.3h0c-1.9.9-3.8.9-5.7.2-1.7-.6-3.4-1.9-4.3-3.8h0c-.9-1.9-.9-3.8-.2-5.7.6-1.7,1.9-3.4,3.8-4.3.4,0,.9-.4,1.3-.4v-7.7c0-1.1.9-2.1,2.1-2.1h14.9v-18.7h-27.9v.4c-.6,1.7-1.9,3.4-3.8,4.3-1.9.9-3.8.9-5.7.2-1.7-.6-3.4-1.9-4.3-3.8-.9-1.9-.9-3.8-.2-5.7.6-1.7,1.9-3.4,3.8-4.3,1.9-.9,3.8-.9,5.7-.2,1.7.6,3.4,1.9,4.3,3.8,0,.4.4.9.4,1.3h27.9v-18.7h-14.9c-1.1,0-2.1-.9-2.1-2.1v-7.7c-.4,0-.9-.2-1.3-.4h0c-1.9-.9-3.2-2.3-3.8-4.3-.6-1.7-.6-3.8.2-5.7h0c.9-1.9,2.3-3.2,4.3-3.8,1.7-.6,3.8-.6,5.7.2h0c1.9.9,3.2,2.3,3.8,4.3.6,1.7.6,3.8-.2,5.7h0c-.9,1.9-2.3,3.2-4.3,3.8h-.4v5.5h12.8v-9.4c0-6.4,2.6-12.1,6.8-16.4,4.3-4.3,10-6.8,16.4-6.8h-.2ZM251.1,230.4h1.1c.9-.2,1.5-.9,1.9-1.7s.4-1.7,0-2.6c-.2-.9-.9-1.5-1.7-1.9-.9-.4-1.7-.4-2.6,0-.9.2-1.5.9-1.9,1.7s-.4,1.7,0,2.6c.2.9.9,1.5,1.7,1.9.4,0,.9.2,1.3.4h0l.2-.4ZM253.5,282.1v74.5c1.5,1.3,3.2,2.1,4.9,2.3h2.3c.6,0,1.3-.6,1.9-1.1.9-.9,1.5-1.9,1.9-3.4-1.1-.6-1.9-1.5-2.8-2.3-.6-.9-.4-2.1.4-2.8s2.1-.4,2.8.4c.6.9,1.5,1.5,2.3,1.7h0c.4,0,.9.2,1.5.2,1.3,0,2.8,0,4-.6s2.6-1.5,3.4-2.6c1.3-1.7,1.9-4,1.5-6.8v-.2c-1.5,0-3,0-4.7-.2-1.1,0-1.9-1.3-1.7-2.3,0-1.1,1.3-1.9,2.3-1.7,1.9.2,3.6.2,5.3,0h0c2.8-.4,4.9-1.5,6.4-3.2.9-.9,1.5-1.9,1.7-3.2.2-1.1.2-2.1,0-3.2-.9-2.3-3.2-4.7-7.7-6.2-.6,0-1.3-.6-1.3-1.3-.4-1.1.2-2.1,1.3-2.6,4.5-1.3,6.8-3.6,7.7-6.2.4-1.1.4-2.1,0-3.2-.2-1.1-.9-2.1-1.7-3.2-1.5-1.5-3.6-2.8-6.4-3.2h0c-1.7-.2-3.4-.2-5.3,0-1.1,0-2.1-.6-2.3-1.7,0-1.1.6-2.1,1.7-2.3,1.7-.2,3.2-.4,4.7-.2v-.2c.4-3,0-5.3-1.5-7-.9-1.3-1.9-2.1-3.2-2.8s-2.6-.9-3.8-.6c-1.5,0-3,.9-4,2.3-.6.9-1.9,1.1-2.8.4-.9-.6-1.1-1.9-.4-2.8.9-1.1,1.7-1.9,2.8-2.3-.4-1.5-1.1-2.8-1.9-3.4-.6-.6-1.3-.9-1.9-1.1-.6-.2-1.5-.2-2.3,0-1.7.2-3.4,1.1-4.9,2.3h0l-.2-.4ZM249.2,356.6v-74.5c-1.5-1.3-3.2-2.1-4.9-2.6h-2.3c-.6,0-1.3.6-1.9,1.1-.9.9-1.5,1.9-1.9,3.4,1.1.6,1.9,1.5,2.8,2.3.6.9.4,2.1-.4,2.8s-2.1.4-2.8-.4c-1.1-1.3-2.6-2.1-4-2.3-1.3,0-2.6,0-3.8.6s-2.3,1.5-3.2,2.8c-1.3,1.7-1.9,4-1.5,7v.2c1.5,0,3,0,4.7.2,1.1,0,1.9,1.3,1.7,2.3,0,1.1-1.3,1.9-2.3,1.7-1.9-.2-3.8-.2-5.3,0h0c-2.8.4-4.9,1.5-6.4,3.2-.9.9-1.5,1.9-1.7,3.2-.2,1.1-.2,2.1,0,3.2.9,2.3,3.2,4.7,7.7,6.2,1.1.4,1.7,1.5,1.3,2.6,0,.6-.6,1.3-1.3,1.3-4.5,1.3-6.8,3.6-7.7,6.2-.4,1.1-.4,2.1,0,3.2.2,1.1.9,2.1,1.7,3.2,1.5,1.5,3.6,2.8,6.4,3.2h0c1.5.2,3.4.2,5.3,0,1.1,0,2.1.6,2.3,1.7,0,1.1-.6,2.1-1.7,2.3-1.7.2-3.2.4-4.7.2v.2c-.4,2.8,0,5.1,1.5,6.8.9,1.3,2.1,2.1,3.4,2.6,1.3.6,2.8.9,4,.6.4,0,.9,0,1.5-.2h0c.9-.4,1.7-.9,2.3-1.7s1.9-1.1,2.8-.4,1.1,1.9.4,2.8c-.9,1.1-1.7,1.9-2.8,2.3.4,1.5,1.1,2.8,1.9,3.4.6.6,1.3.9,1.9,1.1.6.2,1.5.2,2.3,0,1.7-.2,3.2-1.1,4.9-2.3h0l-.2.6ZM251.4,278.5c-1.9-1.5-4-2.6-6.4-3-1.5,0-2.8,0-4,.2-1.3.4-2.6,1.1-3.6,2.1s-2.1,2.8-2.8,4.9h-.4c-1.9-.2-4,0-6,1.1-1.9.9-3.6,2.1-4.9,4-1.9,2.6-2.8,6-2.1,10h0v.4c-2.8.9-4.9,2.1-6.6,3.8-1.3,1.5-2.3,3.2-2.8,4.9s-.4,3.6,0,5.5c.9,2.6,2.8,5.1,5.7,6.8-3.2,1.9-4.9,4.3-5.7,6.8-.6,1.9-.6,3.6,0,5.5.4,1.7,1.5,3.4,2.8,4.9,1.7,1.7,3.8,3,6.6,3.8v.2h0c-.6,4,.4,7.5,2.1,10,1.3,1.7,3,3.2,4.9,4,1.9.9,4,1.3,6,1.1h.2c.6,2.1,1.7,3.8,2.8,5.1,1.1,1.1,2.3,1.7,3.6,2.1,1.3.4,2.8.4,4,.2,2.1-.2,4.3-1.3,6.2-2.8,1.9,1.5,4,2.6,6.2,2.8,1.5,0,2.8,0,4-.2,1.3-.4,2.6-1.1,3.6-2.1s2.3-3,2.8-5.1h.2c1.9.2,4,0,6-1.1,1.9-.9,3.6-2.1,4.9-4,1.9-2.6,2.8-6,2.1-10h0v-.4c2.8-.9,4.9-2.1,6.6-3.8,1.3-1.5,2.3-3.2,2.8-4.9.4-1.7.4-3.6,0-5.5-.9-2.6-2.8-5.1-5.7-6.8,3.2-1.9,4.9-4.3,5.7-6.8.6-1.9.6-3.6,0-5.5-.4-1.7-1.5-3.4-2.8-4.9-1.7-1.7-3.8-3-6.6-3.8v-.2h0c.6-4-.2-7.5-2.1-10-1.3-1.7-3-3.2-4.9-4s-4-1.3-6-1.1h-.4c-.6-2.1-1.7-3.8-2.8-4.9s-2.3-1.7-3.6-2.1c-1.3-.4-2.8-.4-4-.2-2.1.2-4.3,1.3-6.4,3h.9ZM217.3,247.2h0c0-.4,0-.9-.2-1.3h0c-.4-.9-1.1-1.3-1.9-1.7-.9-.2-1.7-.2-2.6,0s-1.5,1.1-1.7,1.9-.2,1.7,0,2.6h0c.4.9,1.1,1.3,1.9,1.7s1.7.2,2.6,0h0c.9-.4,1.3-1.1,1.7-1.9v-1.1h0l.2-.2ZM285.4,247h0v1.3c.2.9.9,1.5,1.7,1.9h0c.9.4,1.7.4,2.6,0,.9-.2,1.5-.9,1.9-1.7h0c.4-.9.4-1.7,0-2.6-.2-.9-.9-1.5-1.7-1.9h0c-.9-.4-1.7-.4-2.6,0-.9.2-1.5.9-1.9,1.7h0c0,.4-.2.9-.2,1.3h.2ZM162.5,319.6h0c0-.6,0-1.1-.4-1.5-.4-.9-1.1-1.5-1.9-1.7s-1.7-.2-2.6,0c-.9.4-1.5,1.1-1.7,1.9s-.2,1.7,0,2.6,1.1,1.5,1.9,1.7,1.7.2,2.6,0c.9-.4,1.5-1.1,1.7-1.9v-1.1h.4ZM179,285.3h1.3c.9-.2,1.5-.9,1.9-1.7h0c.4-.9.4-1.7,0-2.6-.2-.9-.9-1.5-1.7-1.9h0c-.9-.4-1.7-.4-2.6,0-.9.2-1.5.9-1.9,1.7h0c-.4.9-.4,1.7,0,2.6.2.9.9,1.5,1.7,1.9h0c.4,0,.9.2,1.3.2h0v-.2ZM179.3,353.4h-.2c-.4,0-.9,0-1.3.4-.9.4-1.5,1.1-1.7,1.9-.2.9-.2,1.7,0,2.6h0c.4.9,1.1,1.3,1.9,1.7s1.7.2,2.6,0h0c.9-.4,1.3-1.1,1.7-1.9.2-.9.2-1.7,0-2.6s-1.1-1.5-1.9-1.7h-1.1v-.4ZM340.3,319.1h0v1.3c.2.9.9,1.5,1.7,1.9s1.7.4,2.6,0c.9-.2,1.5-.9,1.9-1.7s.4-1.7,0-2.6c-.2-.9-.9-1.5-1.7-1.9s-1.7-.4-2.6,0c-.9.2-1.5.9-1.9,1.7,0,.4-.2.9-.4,1.3h.4ZM323.5,285.3h.2c.4,0,.9,0,1.3-.2h0c.9-.4,1.3-1.1,1.7-1.9s.2-1.7,0-2.6h0c-.4-.9-1.1-1.3-1.9-1.7s-1.7-.2-2.6,0h0c-.9.4-1.3,1.1-1.7,1.9s-.2,1.7,0,2.6h0c.4.9,1.1,1.3,1.9,1.7h1.1v.2ZM323.7,353.4h-1.3c-.9.2-1.5.9-1.9,1.7-.4.9-.4,1.7,0,2.6.2.9.9,1.5,1.7,1.9h0c.9.4,1.7.4,2.6,0,.9-.2,1.5-.9,1.9-1.7h0c.4-.9.4-1.7,0-2.6-.2-.9-.9-1.5-1.7-1.9-.4,0-.9-.2-1.3-.4h0v.4ZM251.6,408.4h-1.3c-.9.2-1.5.9-1.9,1.7s-.4,1.7,0,2.6c.2.9.9,1.5,1.7,1.9.9.4,1.7.4,2.6,0,.9-.2,1.5-.9,1.9-1.7s.4-1.7,0-2.6c-.2-.9-.9-1.5-1.7-1.9-.4,0-.9-.2-1.3-.4h0v.4ZM285.4,391.5h0c0,.6,0,1.1.2,1.5h0c.4.9,1.1,1.3,1.9,1.7s1.7.2,2.6,0h0c.9-.4,1.3-1.1,1.7-1.9s.2-1.7,0-2.6h0c-.4-.9-1.1-1.3-1.9-1.7s-1.7-.2-2.6,0h0c-.9.4-1.3,1.1-1.7,1.9v1.1h-.2ZM217.3,391.8h0v-1.3c-.2-.9-.9-1.5-1.7-1.9-.9-.4-1.7-.4-2.6,0-.9.2-1.5.9-1.9,1.7h0c-.4.9-.4,1.7,0,2.6.2.9.9,1.5,1.7,1.9h0c.9.4,1.7.4,2.6,0,.9-.2,1.5-.9,1.9-1.7,0-.4.2-.9.4-1.3h-.4ZM285.4,266.1h-68.3c-5.3,0-10,2.1-13.6,5.5-3.4,3.4-5.5,8.3-5.5,13.6v68.4c0,5.3,2.1,10,5.5,13.6,3.4,3.4,8.3,5.5,13.6,5.5h68.1c5.3,0,10-2.1,13.6-5.5,3.4-3.4,5.5-8.3,5.5-13.6v-68.4c0-5.3-2.1-10-5.7-13.6s-8.3-5.5-13.6-5.5h.4Z"/>
</svg>