<?xml version="1.0" encoding="UTF-8"?>
<svg id="Layer_1" data-name="Layer 1" xmlns="http://www.w3.org/2000/svg" version="1.1" viewBox="0 0 504 630">
  <defs>
    <style>
      .cls-1 {
        fill: none;
      }

      .cls-1, .cls-2 {
        stroke-width: 0px;
      }

      .cls-2 {
        fill: #000;
        fill-rule: evenodd;
      }
    </style>
  </defs>
  <rect class="cls-1" x="152" y="224.8" width="200" height="200"/>
  <path class="cls-2" d="M198.2,325.6h-34.4c-1.2,0-2-.8-2-2s.8-2,2-2h34.4v-24h-22.6c-1.2,0-2-.8-2-2s.8-2,2-2h22.6v-14c0-5.8,4.6-10.4,10.4-10.4h13.6v-22c0-1.2.8-2,2-2s2,.8,2,2v22h24v-33.8c0-1.2.8-2,2-2s2,.8,2,2v34h24v-22c0-1.2.8-2,2-2s2,.8,2,2v22h13.6c5.8,0,10.4,4.6,10.4,10.4v14h22.6c1.2,0,2,.8,2,2s-.8,2-2,2h-22.6v24h34.4c1.2,0,2,.8,2,2s-.8,2-2,2h-34.4v24h22.6c1.2,0,2,.8,2,2s-.8,2-2,2h-22.6v13c0,5.8-4.6,10.4-10.4,10.4h-13.6v23c0,1.2-.8,2-2,2s-2-.8-2-2v-23h-24v34.8c0,1.2-.8,2-2,2s-2-.8-2-2v-34.8h-24v23c0,1.2-.8,2-2,2s-2-.8-2-2v-23h-13.6c-5.8,0-10.4-4.6-10.4-10.4v-13h-22.6c-1.2,0-2-.8-2-2s.8-2,2-2h22.6v-24.2ZM295.6,273.4h-87c-3.6,0-6.4,2.8-6.4,6.4v87c0,3.6,2.8,6.4,6.4,6.4h87c3.6,0,6.4-2.8,6.4-6.4v-87c0-3.6-2.8-6.4-6.4-6.4ZM223.6,323.2c-1.4-1.8-2.4-3.4-3.4-5-2.8-5.4-3.2-10.2-1-14,2.2-3.6,6.6-5.8,12.6-6,1.8,0,4,0,6,.4.8-2,1.8-3.8,2.8-5.4,3.2-5,7.2-7.8,11.6-7.8s8.4,2.8,11.6,7.8c1,1.6,2,3.4,2.8,5.4,2.2-.2,4.2-.4,6-.4,6,.2,10.4,2.4,12.6,6s1.8,8.6-1,14c-.8,1.6-2,3.4-3.4,5,1.4,1.8,2.4,3.4,3.4,5,2.8,5.2,3.2,10.2,1,14-2.2,3.6-6.6,5.8-12.6,6-1.8,0-4,0-6-.4-.8,2-1.8,3.8-2.8,5.4-3.2,5-7.2,7.8-11.6,7.8s-8.4-2.8-11.6-7.8c-1-1.6-2-3.4-2.8-5.4-2.2.2-4.2.4-6,.4-6-.2-10.4-2.4-12.6-6s-1.8-8.6,1-14c.8-1.6,2-3.4,3.4-5ZM236.4,302.4c-1.6,0-3.2-.2-4.6,0-4.4,0-7.8,1.4-9.2,4-1.6,2.6-.8,6.2,1.2,10,.6,1.2,1.4,2.6,2.4,3.8,2.2-2.4,5-5,8-7.2.6-3.8,1.2-7.4,2.2-10.4v-.2ZM262.2,299.2c-.6-1.4-1.4-2.8-2.2-4-2.4-3.6-5-6-8.2-6s-5.8,2.4-8.2,6c-.8,1.2-1.4,2.6-2.2,4,3.2.8,6.8,1.8,10.2,3.2,3.6-1.4,7-2.6,10.2-3.2h.4ZM278,320c1-1.2,1.8-2.6,2.4-3.8,2-3.8,2.6-7.4,1.2-10-1.6-2.6-5-3.8-9.2-4h-4.6c1,3.2,1.8,6.8,2.2,10.4,3,2.4,5.6,4.8,8,7.2v.2ZM267.8,344c1.6,0,3.2.2,4.6,0,4.4,0,7.8-1.4,9.2-4s.8-6.2-1.2-10c-.6-1.2-1.4-2.6-2.4-3.8-2.2,2.4-5,5-8,7.2-.6,3.8-1.2,7.4-2.2,10.4v.2ZM241.8,347.2c.6,1.4,1.4,2.8,2.2,4,2.4,3.6,5,6,8.2,6s5.8-2.4,8.2-6c.8-1.2,1.4-2.6,2.2-4-3.2-.8-6.8-1.8-10.2-3.2-3.6,1.4-7,2.6-10.2,3.2h-.4ZM226.2,326.4c-1,1.2-1.8,2.6-2.4,3.8-2,3.8-2.6,7.4-1.2,10,1.6,2.6,5,3.8,9.2,4h4.6c-1-3.2-1.8-6.8-2.2-10.4-3-2.4-5.6-4.8-8-7.2v-.2ZM247,304.8c-2.2-.8-4.4-1.4-6.6-1.8-.6,2-1.2,4.2-1.6,6.6,1.4-.8,2.6-1.6,4-2.4s2.8-1.6,4.2-2.2v-.2ZM233.6,318.4c-1.8,1.6-3.4,3.2-4.8,4.8,1.4,1.6,3,3.2,4.8,4.8v-9.6ZM265.4,309.6c-.4-2.4-1-4.6-1.6-6.6-2.2.4-4.2,1-6.6,1.8,1.4.6,2.8,1.4,4.2,2.2,1.4.8,2.8,1.6,4,2.4v.2ZM270.6,328c1.8-1.6,3.4-3.2,4.8-4.8-1.4-1.6-3-3.2-4.8-4.8v9.6ZM257.2,341.6c2.2.8,4.4,1.4,6.6,1.8.6-2,1.2-4.2,1.6-6.6-1.4.8-2.6,1.6-4,2.6-1.4.8-2.8,1.6-4.2,2.2ZM238.6,336.8c.4,2.4,1,4.6,1.6,6.6,2.2-.4,4.2-1,6.6-1.8-1.4-.8-2.8-1.4-4.2-2.2-1.4-.8-2.8-1.6-4-2.6ZM252,306.8c-2.4,1-4.8,2.4-7.4,3.8-2.4,1.4-4.8,3-6.8,4.4-.2,2.6-.4,5.4-.4,8.2s0,5.6.4,8.2c2.2,1.6,4.4,3,6.8,4.4s4.8,2.6,7.4,3.8c2.4-1,4.8-2.4,7.4-3.8,2.4-1.4,4.8-3,6.8-4.4.2-2.6.4-5.4.4-8.2s0-5.6-.4-8.2c-2.2-1.6-4.4-3-6.8-4.4s-4.8-2.6-7.4-3.8ZM262.6,323v.4c0,5.8-4.6,10.4-10.4,10.4h-.4c-5.8,0-10.4-4.6-10.4-10.4v-.4c0-5.8,4.6-10.4,10.4-10.4h.4c5.8,0,10.4,4.6,10.4,10.4ZM258.6,323c0-3.6-2.8-6.4-6.4-6.4h-.4c-3.6,0-6.4,2.8-6.4,6.4v.4c0,3.6,2.8,6.4,6.4,6.4h.4c3.6,0,6.4-2.8,6.4-6.4v-.4Z"/>
</svg>