<?xml version="1.0" encoding="UTF-8"?>
<svg id="Layer_1" data-name="Layer 1" xmlns="http://www.w3.org/2000/svg" version="1.1" viewBox="0 0 100 125">
  <defs>
    <style>
      .cls-1 {
        fill: #000;
        stroke-width: 0px;
      }
    </style>
  </defs>
  <path class="cls-1" d="M32,41v18c0,9.9,8.1,18,18,18s18-8.1,18-18v-18c0-9.9-8.1-18-18-18s-18,8.1-18,18ZM50,27c7.7,0,14,6.3,14,14v18c0,7.7-6.3,14-14,14s-14-6.3-14-14v-18c0-7.7,6.3-14,14-14Z"/>
  <path class="cls-1" d="M50,44c1.1,0,2-.9,2-2v-6c0-1.1-.9-2-2-2s-2,.9-2,2v6c0,1.1.9,2,2,2Z"/>
  <path class="cls-1" d="M48.6,92.4c.4.4.9.6,1.4.6s1-.2,1.4-.6l5-5c.8-.8.8-2,0-2.8s-2-.8-2.8,0l-3.6,3.6-3.6-3.6c-.8-.8-2-.8-2.8,0s-.8,2,0,2.8l5,5Z"/>
  <path class="cls-1" d="M48.6,7.6l-5,5c-.8.8-.8,2,0,2.8.4.4.9.6,1.4.6s1-.2,1.4-.6l3.6-3.6,3.6,3.6c.4.4.9.6,1.4.6s1-.2,1.4-.6c.8-.8.8-2,0-2.8l-5-5c-.8-.8-2-.8-2.8,0Z"/>
</svg>