<?xml version="1.0" encoding="UTF-8"?>
<svg id="Layer_1" data-name="Layer 1" xmlns="http://www.w3.org/2000/svg" version="1.1" viewBox="0 0 504 630">
  <defs>
    <style>
      .cls-1 {
        fill: #000;
        stroke-width: 0px;
      }
    </style>
  </defs>
  <g>
    <path class="cls-1" d="M349.9,409.1h-192.8c-1.9,0-3.6-1.9-3.6-4.2v-5.6c0-2.2,1.7-4.2,3.6-4.2h192.8c1.9,0,3.6,1.9,3.6,4.2v5.6c0,2.2-1.7,4.2-3.6,4.2ZM157.1,398c-.7,0-1.2.6-1.2,1.4v5.6c0,.8.5,1.4,1.2,1.4h192.8c.7,0,1.2-.6,1.2-1.4v-5.6c0-.8-.5-1.4-1.2-1.4h-192.8Z"/>
    <g>
      <path class="cls-1" d="M187.2,398h-2.4c0-2.8-1.2-5.6-2.4-5.6h-7.2c-1.2,0-2.4,2.8-2.4,5.6h-2.4c0-5.6,2.2-8.3,4.8-8.3h7.2c2.7,0,4.8,2.8,4.8,8.3Z"/>
      <path class="cls-1" d="M206.5,398h-2.4c0-2.8-1.2-5.6-2.4-5.6h-7.2c-1.2,0-2.4,2.8-2.4,5.6h-2.4c0-5.6,2.2-8.3,4.8-8.3h7.2c2.7,0,4.8,2.8,4.8,8.3Z"/>
      <path class="cls-1" d="M230.6,398h-2.4c0-2.8-1.2-5.6-2.4-5.6h-7.2c-1.2,0-2.4,2.8-2.4,5.6h-2.4c0-5.6,2.2-8.3,4.8-8.3h7.2c2.7,0,4.8,2.8,4.8,8.3Z"/>
      <path class="cls-1" d="M249.9,398h-2.4c0-2.8-1.2-5.6-2.4-5.6h-7.2c-1.2,0-2.4,2.8-2.4,5.6h-2.4c0-5.6,2.2-8.3,4.8-8.3h7.2c2.7,0,4.8,2.8,4.8,8.3Z"/>
      <path class="cls-1" d="M274,398h-2.4c0-2.8-1.2-5.6-2.4-5.6h-7.2c-1.2,0-2.4,2.8-2.4,5.6h-2.4c0-5.6,2.2-8.3,4.8-8.3h7.2c2.7,0,4.8,2.8,4.8,8.3Z"/>
      <path class="cls-1" d="M293.3,398h-2.4c0-2.8-1.2-5.6-2.4-5.6h-7.2c-1.2,0-2.4,2.8-2.4,5.6h-2.4c0-5.6,2.2-8.3,4.8-8.3h7.2c2.7,0,4.8,2.8,4.8,8.3Z"/>
      <path class="cls-1" d="M317.4,398h-2.4c0-2.8-1.2-5.6-2.4-5.6h-7.2c-1.2,0-2.4,2.8-2.4,5.6h-2.4c0-5.6,2.2-8.3,4.8-8.3h7.2c2.7,0,4.8,2.8,4.8,8.3Z"/>
      <path class="cls-1" d="M336.6,398h-2.4c0-2.8-1.2-5.6-2.4-5.6h-7.2c-1.2,0-2.4,2.8-2.4,5.6h-2.4c0-5.6,2.2-8.3,4.8-8.3h7.2c2.7,0,4.8,2.8,4.8,8.3Z"/>
    </g>
  </g>
  <path class="cls-1" d="M321,375.8h-137.3c-3.4,0-6-3.1-6-6.9v-147.2c0-6.9,4.8-12.5,10.8-12.5h127.7c6,0,10.8,5.6,10.8,12.5v147.2c0,3.9-2.7,6.9-6,6.9ZM188.4,211.9c-4.6,0-8.4,4.4-8.4,9.7v147.2c0,2.2,1.7,4.2,3.6,4.2h137.3c1.9,0,3.6-1.9,3.6-4.2v-147.2c0-5.3-3.9-9.7-8.4-9.7h-127.7Z"/>
  <path class="cls-1" d="M310.1,323h-115.7v-94.4h115.7v94.4ZM196.9,320.2h110.8v-88.9h-110.8v88.9Z"/>
  <rect class="cls-1" x="189.7" y="359.1" width="9.6" height="5.6"/>
  <rect class="cls-1" x="264.3" y="359.1" width="43.4" height="2.8"/>
  <rect class="cls-1" x="180" y="345.2" width="144.6" height="2.8"/>
</svg>